<svg xmlns="http://www.w3.org/2000/svg" width="181.22487mm" height="259.49857mm" viewBox="0 0 181.22487 259.49857"><path d="M0 0h-11.074v4.653H0v11.195l5.357 1.315v3.069l-23.374 4.172c-.96.173-1.745-.484-1.745-1.46v-51.256c0-.975.781-1.616 1.736-1.426L0-26.152Z" style="fill:#04a2e7;fill-opacity:1;fill-rule:evenodd;stroke:none" transform="matrix(4.0375 0 0 -4.0375 79.79 98.643)"/><path d="m0 0-18.044-4.432v-12.509h11.081v-4.654h-11.081v-25.087l-5.357-1.065v-7.611L.006-61.382c.942-.241 1.716.36 1.716 1.331v58.702C1.722-.373.945.232 0 0" style="fill:#59c134;fill-opacity:1;fill-rule:evenodd;stroke:none" transform="matrix(4.0375 0 0 -4.0375 174.272 11.454)"/></svg>